<svg xmlns="http://www.w3.org/2000/svg" width="371.349" height="102.698" viewBox="0 0 278.51172 77.023434"><path d="M278.512 77.023H0V0h278.512zm0 0" fill="#d9c57f"/><path d="M177.39 18.523l5.16-7.683h1.567v9.558h-1.297v-7.722h-.027l-5.16 7.722h-1.567V10.84h1.297v7.683zm0 0M193.813 17.188c0-.325-.055-.625-.157-.907a2.265 2.265 0 0 0-.441-.738 1.955 1.955 0 0 0-.688-.496 2.184 2.184 0 0 0-.906-.184c-.34 0-.644.063-.914.184a1.97 1.97 0 0 0-.691.496c-.188.21-.332.457-.43.738a2.642 2.642 0 0 0-.148.907c0 .312.046.609.148.89.098.281.242.527.43.738.191.211.418.38.691.504.27.125.574.188.914.188.344 0 .652-.063.922-.188s.5-.293.687-.504c.188-.21.333-.457.434-.738.098-.281.149-.578.149-.89m1.292 0c0 .492-.085.949-.261 1.363-.176.414-.418.77-.73 1.074-.313.3-.68.535-1.102.7-.426.167-.883.25-1.38.25-.468 0-.905-.075-1.312-.227a3.469 3.469 0 0 1-1.07-.641 3.324 3.324 0 0 1-.738-.98 3.437 3.437 0 0 1-.328-1.243h-1.192v2.914h-1.258v-6.425h1.258v2.496h1.242c.075-.395.211-.758.407-1.086.199-.328.449-.61.746-.844a3.452 3.452 0 0 1 1.02-.547 3.825 3.825 0 0 1 1.226-.195c.496 0 .953.082 1.379.25.422.168.789.398 1.101.703.313.3.555.656.73 1.07.177.414.262.871.262 1.367M197.441 20.398h-1.254v-6.425h1.254v2.539h3.258v-2.54h1.254v6.426H200.7v-2.875h-3.258zm0 0M204.695 19.453h1.32c.462 0 .837-.082 1.13-.25.292-.164.437-.48.437-.95 0-.233-.04-.429-.121-.581a.912.912 0 0 0-.336-.363 1.533 1.533 0 0 0-.512-.192c-.199-.035-.41-.05-.636-.05h-1.282zm0-5.48v2.16h1.551c.477 0 .879.055 1.211.16.328.11.594.258.8.45.208.187.36.413.454.671.094.262.14.543.14.84 0 .297-.05.574-.16.836-.109.262-.27.488-.488.683-.215.192-.48.344-.8.457-.321.114-.688.168-1.102.168h-2.864v-6.425zm0 0M218.52 20.398h-6.239v-1.253l3.809-3.782c.289-.297.535-.61.746-.93.207-.324.309-.69.309-1.093 0-.254-.047-.48-.137-.684a1.595 1.595 0 0 0-.363-.52 1.583 1.583 0 0 0-.54-.331 1.96 1.96 0 0 0-.664-.114c-.484 0-.886.157-1.199.465-.316.313-.515.707-.594 1.196l-1.285-.215a2.91 2.91 0 0 1 .344-1.008c.176-.309.398-.582.668-.809.273-.23.586-.41.941-.535a3.408 3.408 0 0 1 1.141-.187c.395 0 .773.058 1.14.175.364.118.688.29.965.512.278.227.5.508.668.852.168.34.25.734.25 1.175 0 .305-.039.586-.12.848a3.337 3.337 0 0 1-.333.742c-.14.235-.304.457-.492.668a12.74 12.74 0 0 1-.594.63l-3.105 3.027h4.684zm0 0M222.855 11.691c-.398 0-.718.13-.972.383-.25.258-.45.582-.586.973a5.82 5.82 0 0 0-.293 1.277c-.05.457-.078.89-.078 1.297 0 .402.027.836.078 1.297.055.457.152.879.293 1.266.137.39.336.71.586.968.254.254.574.383.972.383.387 0 .704-.129.954-.383a2.77 2.77 0 0 0 .586-.968c.144-.387.242-.809.296-1.266.055-.461.082-.895.082-1.297 0-.406-.027-.84-.082-1.297a5.607 5.607 0 0 0-.296-1.277 2.788 2.788 0 0 0-.586-.973 1.28 1.28 0 0 0-.954-.383m0-1.093c.567 0 1.055.129 1.465.39.41.262.746.621 1.012 1.075.266.453.461.988.59 1.597a9.8 9.8 0 0 1 .187 1.961c0 .7-.062 1.356-.187 1.965a5.315 5.315 0 0 1-.59 1.59 3.046 3.046 0 0 1-1.012 1.074c-.41.262-.898.395-1.465.395-.566 0-1.058-.133-1.472-.395a3.031 3.031 0 0 1-1.02-1.074 5.209 5.209 0 0 1-.586-1.59 9.775 9.775 0 0 1-.191-1.965c0-.695.066-1.348.191-1.96a5.22 5.22 0 0 1 .586-1.598 3.098 3.098 0 0 1 1.02-1.075c.414-.261.906-.39 1.472-.39M231.297 20.398H230v-7.964l-1.813 1.511-.769-.906 2.715-2.2h1.164zm0 0M239.57 13.73c0-.28-.047-.543-.14-.789a1.93 1.93 0 0 0-1.031-1.09 2.038 2.038 0 0 0-.813-.16c-.297 0-.566.051-.809.153a1.915 1.915 0 0 0-.629.43c-.175.18-.308.394-.406.644-.094.254-.14.527-.14.824 0 .29.046.555.14.797.098.242.23.457.399.637.171.18.379.316.62.418.247.097.516.148.813.148.297 0 .57-.05.817-.148.246-.102.457-.239.632-.418a1.87 1.87 0 0 0 .407-.637c.093-.242.14-.512.14-.809m-1.101 2.81l-.012-.017c-.137.082-.32.145-.555.192l-.328.047a3.04 3.04 0 0 1-1.488-.203 2.826 2.826 0 0 1-1.578-1.574 3.109 3.109 0 0 1-.23-1.2c0-.48.085-.914.25-1.305.167-.39.398-.726.695-1.007a3.123 3.123 0 0 1 1.05-.645c.403-.156.84-.23 1.31-.23.464 0 .901.078 1.304.234.406.16.754.375 1.047.656a3.112 3.112 0 0 1 .934 2.254c0 .524-.087.996-.255 1.418-.172.422-.39.856-.66 1.297l-2.492 3.941h-1.55zm0 0" fill="#1c1c19"/><path d="M87.195 42.86h6.098l-3.047-9.688zm-4.113 3.753v3.621h-3.648V42.86h3.18l5.573-14.691h4.32l5.528 14.691h3.281v7.375h-3.648v-3.62zm0 0M112.516 40.074c0-.418-.07-.824-.207-1.226-.141-.399-.34-.75-.598-1.055-.262-.3-.582-.55-.965-.742-.383-.192-.824-.285-1.328-.285-.504 0-.95.093-1.328.285-.383.191-.7.441-.953.742-.25.305-.442.656-.57 1.055a3.878 3.878 0 0 0 0 2.449c.128.402.324.762.585 1.082.258.32.578.578.961.77.383.19.824.285 1.328.285.504 0 .95-.094 1.329-.286.382-.191.707-.449.964-.77.262-.32.457-.679.586-1.081.133-.399.196-.805.196-1.223m4.117 0c0 1.059-.192 2.02-.574 2.88a6.484 6.484 0 0 1-1.563 2.187 7.22 7.22 0 0 1-2.289 1.394c-.871.328-1.8.496-2.789.496a7.841 7.841 0 0 1-2.773-.496 6.988 6.988 0 0 1-2.293-1.394 6.563 6.563 0 0 1-1.551-2.188c-.383-.86-.574-1.82-.574-2.879 0-1.058.191-2.015.574-2.867a6.45 6.45 0 0 1 1.55-2.16 6.708 6.708 0 0 1 2.294-1.356 8.19 8.19 0 0 1 2.773-.468c.988 0 1.918.156 2.789.468a6.919 6.919 0 0 1 2.29 1.356c.66.59 1.179 1.312 1.562 2.16.382.852.574 1.809.574 2.867M123.094 33.64l4.297 5.235 4.222-5.234h3.75v12.972h-4.273v-7.058l-3.36 4.582H127l-3.387-4.532v7.008h-4.27V33.641zm0 0M153.078 46.71h-4.27V33.739h9.118v3.282h-4.848zm0 0M169.777 40.172c0-.418-.07-.824-.207-1.223a3.188 3.188 0 0 0-.601-1.054 2.952 2.952 0 0 0-.965-.743c-.379-.191-.824-.289-1.328-.289-.504 0-.946.098-1.328.29a2.81 2.81 0 0 0-.95.742c-.253.3-.445.652-.574 1.054a3.944 3.944 0 0 0 0 2.45c.13.398.328.757.586 1.078.262.324.582.578.965.77.379.19.824.284 1.328.284.504 0 .945-.093 1.328-.285.383-.191.703-.445.965-.77.258-.32.457-.68.586-1.078.129-.402.195-.808.195-1.226m4.118 0c0 1.062-.192 2.02-.575 2.879a6.445 6.445 0 0 1-1.562 2.187 7.1 7.1 0 0 1-2.293 1.395 7.817 7.817 0 0 1-2.79.496 7.857 7.857 0 0 1-2.773-.496 6.937 6.937 0 0 1-2.293-1.395 6.579 6.579 0 0 1-1.55-2.187c-.38-.86-.57-1.817-.57-2.88 0-1.058.19-2.015.57-2.866a6.505 6.505 0 0 1 1.55-2.16 6.783 6.783 0 0 1 2.293-1.356 8.206 8.206 0 0 1 2.774-.469c.992 0 1.922.157 2.789.47a6.937 6.937 0 0 1 2.293 1.355c.66.59 1.18 1.312 1.562 2.16.383.851.575 1.808.575 2.867M175.457 33.738h11.488v3.309h-3.62v9.664h-4.274v-9.664h-3.594zm0 0M198.797 40.172c0-.418-.07-.824-.207-1.223a3.188 3.188 0 0 0-.602-1.054 2.977 2.977 0 0 0-.96-.743c-.383-.191-.829-.289-1.333-.289s-.945.098-1.328.29a2.81 2.81 0 0 0-.949.742c-.254.3-.445.652-.574 1.054a3.944 3.944 0 0 0 0 2.45c.129.398.324.757.586 1.078.261.324.582.578.965.77.382.19.824.284 1.328.284.504 0 .945-.093 1.328-.285.383-.191.703-.445.965-.77.261-.32.457-.68.586-1.078.132-.402.195-.808.195-1.226m4.117 0c0 1.062-.191 2.02-.574 2.879a6.445 6.445 0 0 1-1.563 2.187 7.1 7.1 0 0 1-2.293 1.395 7.817 7.817 0 0 1-2.789.496 7.857 7.857 0 0 1-2.773-.496 6.937 6.937 0 0 1-2.293-1.395 6.58 6.58 0 0 1-1.55-2.187c-.38-.86-.571-1.817-.571-2.88 0-1.058.191-2.015.57-2.866a6.505 6.505 0 0 1 1.55-2.16 6.783 6.783 0 0 1 2.294-1.356 8.206 8.206 0 0 1 2.773-.469c.992 0 1.922.157 2.79.47a6.937 6.937 0 0 1 2.292 1.355c.66.59 1.18 1.312 1.563 2.16.383.851.574 1.808.574 2.867M209.895 43.793h1.613c.347 0 .691-.004 1.031-.012.336-.008.637-.05.898-.117a1.38 1.38 0 0 0 .625-.34c.157-.156.235-.383.235-.676 0-.296-.078-.53-.235-.703a1.332 1.332 0 0 0-.625-.379 3.896 3.896 0 0 0-.886-.144 21.439 21.439 0 0 0-1.016-.024h-1.64zm1.718-4.871c.278 0 .543-.012.793-.04a2.63 2.63 0 0 0 .68-.155c.2-.079.355-.192.469-.34.113-.149.168-.34.168-.586 0-.485-.215-.797-.653-.938a5.025 5.025 0 0 0-1.508-.207h-1.667v2.266zm1.512 7.789h-7.504V33.738h7.164c1.649 0 2.922.317 3.817.95.894.636 1.343 1.48 1.343 2.542 0 .485-.078.887-.234 1.211a2.43 2.43 0 0 1-.629.809 3.145 3.145 0 0 1-.922.52c-.355.128-.726.246-1.11.351.47.035.923.117 1.356.246.434.133.813.317 1.133.563.32.242.578.554.77.937.191.383.285.84.285 1.38 0 1.042-.485 1.878-1.457 2.515-.973.633-2.313.949-4.012.949" fill="#fff"/><path d="M34.176 41.23l8.441-7.972c.688.719 1.508 1.582 2.29 2.398-3.505 3.512-6.934 6.95-10.337 10.364-2.054-2.047-4.148-4.13-6.328-6.301.762-.766 1.54-1.547 2.524-2.543 1.207 1.433 2.32 2.758 3.41 4.054"/><path d="M20.293 38.574c0-8.676 7.062-15.738 15.738-15.738 8.676 0 15.739 7.062 15.739 15.738 0 8.676-7.063 15.738-15.739 15.738-8.676 0-15.738-7.062-15.738-15.738m225.27-24.504v2h10.148v44.325H37.8v-4.29c8.886-.894 15.851-8.414 15.851-17.53 0-9.118-6.965-16.638-15.851-17.532V16.07h132.398v-2H35.801v6.899c-9.61.12-17.39 7.968-17.39 17.605s7.78 17.485 17.39 17.61v6.21h221.91V14.07zm0 0" fill="#fff"/></svg>