<svg xmlns="http://www.w3.org/2000/svg" width="234.438" height="311.885" viewBox="0 0 62.028259 82.519691"><path d="M62.028 82.52H0V0h62.028zm0 0" fill="#cab368"/><path d="M15.856 60.547l2.625-3.911h.798v4.867h-.66v-3.931h-.014l-2.625 3.931h-.798v-4.867h.66v3.91zm0 0M24.214 59.867c0-.165-.027-.318-.079-.461a1.173 1.173 0 0 0-.225-.376 1.018 1.018 0 0 0-.35-.254 1.13 1.13 0 0 0-.46-.09c-.175 0-.33.03-.467.09a1.036 1.036 0 0 0-.57.63 1.363 1.363 0 0 0-.076.461c0 .159.024.31.075.454a1.062 1.062 0 0 0 1.038.728 1.057 1.057 0 0 0 .817-.351c.097-.108.17-.234.22-.377.05-.143.077-.295.077-.454m.66 0c0 .251-.046.483-.135.694-.09.21-.214.394-.371.547a1.674 1.674 0 0 1-.562.357c-.215.085-.45.126-.702.126-.24 0-.461-.038-.668-.115a1.639 1.639 0 0 1-.92-.825 1.74 1.74 0 0 1-.167-.633h-.607v1.485h-.64V58.23h.64v1.272h.634a1.609 1.609 0 0 1 .584-.982c.152-.119.326-.212.52-.279.196-.066.404-.099.624-.099.252 0 .487.042.702.127.216.084.403.204.562.357.157.154.281.336.37.547.09.21.136.442.136.695M26.063 61.503h-.64V58.23h.64v1.293h1.655V58.23h.64v3.273h-.64v-1.465h-1.655zm0 0M29.753 61.02h.673c.234 0 .426-.04.574-.126.15-.084.224-.247.224-.485a.627.627 0 0 0-.062-.295.486.486 0 0 0-.173-.186.758.758 0 0 0-.26-.096 1.847 1.847 0 0 0-.324-.027h-.652zm0-2.79v1.1h.79c.242 0 .448.028.616.083.167.055.303.13.408.227.106.097.183.211.23.343.048.134.073.276.073.426 0 .152-.028.294-.083.427a.96.96 0 0 1-.248.348 1.186 1.186 0 0 1-.408.232 1.67 1.67 0 0 1-.56.087h-1.457V58.23zm0 0M36.79 61.503h-3.174v-.64l1.937-1.924c.148-.152.273-.309.378-.474a1.006 1.006 0 0 0 .09-.904.809.809 0 0 0-.185-.265.816.816 0 0 0-.276-.168.974.974 0 0 0-.336-.058.832.832 0 0 0-.612.237 1.07 1.07 0 0 0-.303.608l-.652-.11a1.517 1.517 0 0 1 .515-.925 1.53 1.53 0 0 1 .477-.272c.182-.063.375-.096.582-.096.201 0 .394.03.58.09.186.06.35.147.492.261.142.115.255.26.34.433.084.174.127.373.127.598 0 .156-.02.3-.062.433-.041.133-.098.259-.168.379a2.241 2.241 0 0 1-.25.339 6.576 6.576 0 0 1-.304.32l-1.58 1.54h2.385zm0 0M38.997 57.07a.66.66 0 0 0-.495.196c-.13.13-.228.295-.299.494a2.924 2.924 0 0 0-.148.65c-.027.234-.04.453-.04.66 0 .206.013.425.04.66.027.233.077.449.148.646.07.197.17.36.3.49a.66.66 0 0 0 .494.196.64.64 0 0 0 .484-.195c.127-.131.226-.294.299-.491.073-.197.124-.413.151-.646.028-.235.042-.454.042-.66 0-.207-.014-.426-.042-.66a2.849 2.849 0 0 0-.151-.65 1.378 1.378 0 0 0-.3-.494.64.64 0 0 0-.483-.196m0-.557c.288 0 .536.066.746.199.208.133.38.315.515.547.135.231.234.503.299.814.063.312.097.644.097.997 0 .357-.034.69-.097 1a2.697 2.697 0 0 1-.299.81 1.588 1.588 0 0 1-.515.547c-.21.133-.458.199-.746.199a1.38 1.38 0 0 1-.75-.199 1.586 1.586 0 0 1-.52-.547 2.66 2.66 0 0 1-.297-.81 4.891 4.891 0 0 1-.096-1c0-.353.031-.685.096-.997.064-.311.163-.583.298-.814.136-.232.309-.414.52-.547.21-.133.46-.199.75-.199M43.292 61.503h-.66v-4.055l-.92.769-.393-.46 1.38-1.121h.593zm0 0M47.505 58.108c0-.142-.023-.277-.072-.403a.987.987 0 0 0-.526-.554 1 1 0 0 0-.412-.08c-.152 0-.29.025-.412.078a.942.942 0 0 0-.526.546c-.049.129-.072.268-.072.42 0 .146.023.28.072.405a.97.97 0 0 0 .202.322.895.895 0 0 0 .317.214c.124.05.26.076.412.076.152 0 .29-.025.416-.076a.93.93 0 0 0 .53-.536 1.13 1.13 0 0 0 .071-.412m-.56 1.429l-.008-.007a.89.89 0 0 1-.28.096c-.056.01-.112.017-.169.024a1.57 1.57 0 0 1-.758-.102 1.477 1.477 0 0 1-.48-.317 1.432 1.432 0 0 1-.322-.484 1.577 1.577 0 0 1-.117-.612c0-.244.043-.464.127-.664.085-.198.202-.37.354-.511.15-.142.328-.252.535-.33.205-.078.427-.117.664-.117.238 0 .46.04.665.12.207.08.384.192.532.334.15.142.266.311.35.508.084.197.127.41.127.64 0 .266-.044.505-.13.72a4.513 4.513 0 0 1-.336.66l-1.269 2.008h-.79zm0 0" fill="#1c1c19"/><path d="M17.512 36.353h2.928l-1.463-4.655zm-1.977 1.802v1.74h-1.752v-3.542h1.527l2.678-7.059h2.078l2.652 7.059h1.577v3.541h-1.752v-1.739zm0 0M29.676 35.013c0-.2-.033-.395-.1-.587a1.56 1.56 0 0 0-.289-.507 1.41 1.41 0 0 0-1.101-.495c-.24 0-.454.046-.638.138-.183.092-.335.211-.456.357a1.505 1.505 0 0 0-.275.507 1.895 1.895 0 0 0 0 1.176c.062.191.157.365.28.52.126.153.28.276.464.368.183.093.397.138.638.138.242 0 .455-.045.64-.138.182-.092.337-.215.462-.369.124-.154.22-.328.281-.52.062-.19.094-.387.094-.588m1.978 0c0 .51-.093.97-.276 1.384a3.11 3.11 0 0 1-.751 1.051 3.424 3.424 0 0 1-1.101.669c-.418.16-.863.238-1.34.238-.467 0-.91-.079-1.332-.238a3.338 3.338 0 0 1-1.101-.669 3.15 3.15 0 0 1-.744-1.051 3.352 3.352 0 0 1-.276-1.384 3.3 3.3 0 0 1 .276-1.375 3.086 3.086 0 0 1 1.845-1.69 3.906 3.906 0 0 1 1.332-.226c.477 0 .922.075 1.34.226.417.15.784.367 1.1.65.318.285.569.63.752 1.04.183.408.276.867.276 1.375M34.757 31.922l2.066 2.517 2.027-2.517h1.8v6.233H38.6v-3.391l-1.615 2.202h-.35l-1.628-2.177v3.366h-2.052v-6.233zm0 0M16.7 50.67h-2.054v-6.232h4.38v1.576H16.7zm0 0M24.72 47.529c0-.202-.032-.397-.1-.589a1.477 1.477 0 0 0-.751-.864 1.416 1.416 0 0 0-.638-.136c-.243 0-.455.045-.638.136-.183.092-.336.21-.456.357a1.519 1.519 0 0 0-.276.507 1.858 1.858 0 0 0-.094.589c0 .2.03.396.094.588.062.192.156.364.281.518.126.154.28.278.463.37.184.092.397.137.638.137a1.4 1.4 0 0 0 .638-.138c.184-.09.34-.215.465-.369.124-.154.218-.326.28-.518.063-.192.095-.389.095-.588m1.977 0c0 .508-.092.97-.275 1.382a3.097 3.097 0 0 1-.752 1.051 3.428 3.428 0 0 1-1.1.67 3.743 3.743 0 0 1-1.34.237c-.467 0-.91-.079-1.333-.237a3.34 3.34 0 0 1-1.1-.67 3.16 3.16 0 0 1-.746-1.051 3.368 3.368 0 0 1-.274-1.382c0-.509.09-.968.274-1.377.184-.41.433-.755.745-1.04.313-.283.68-.5 1.101-.65a3.94 3.94 0 0 1 1.333-.226c.475 0 .922.076 1.34.226.417.15.784.367 1.1.65.317.285.568.63.752 1.04.183.41.275.868.275 1.377M27.45 44.438h5.518v1.588h-1.74v4.643h-2.052v-4.643h-1.727zm0 0M38.66 47.529c0-.202-.032-.397-.098-.589a1.477 1.477 0 0 0-.751-.864 1.42 1.42 0 0 0-.638-.136c-.243 0-.455.045-.638.136-.185.092-.337.21-.458.357a1.543 1.543 0 0 0-.276.507 1.898 1.898 0 0 0 0 1.177c.064.192.158.364.283.518a1.355 1.355 0 0 0 1.101.507c.241 0 .455-.045.638-.138.183-.09.338-.215.463-.369a1.59 1.59 0 0 0 .281-.518c.064-.192.094-.389.094-.588m1.977 0c0 .508-.092.97-.275 1.382a3.112 3.112 0 0 1-.75 1.051 3.449 3.449 0 0 1-1.102.67 3.73 3.73 0 0 1-1.338.237 3.76 3.76 0 0 1-1.334-.237 3.355 3.355 0 0 1-1.101-.67 3.137 3.137 0 0 1-.745-1.051 3.368 3.368 0 0 1-.275-1.382c0-.509.092-.968.275-1.377a3.086 3.086 0 0 1 1.846-1.69c.421-.15.866-.226 1.334-.226.475 0 .921.076 1.338.226.417.15.784.367 1.102.65.316.285.566.63.75 1.04.183.41.275.868.275 1.377M43.992 49.268h.776c.167 0 .332-.003.495-.007.163-.003.306-.022.431-.055a.648.648 0 0 0 .3-.164c.075-.075.114-.184.114-.326a.49.49 0 0 0-.113-.337.645.645 0 0 0-.3-.18 1.765 1.765 0 0 0-.426-.07 9.646 9.646 0 0 0-.488-.014h-.789zm.826-2.34c.134 0 .262-.007.382-.02a1.24 1.24 0 0 0 .325-.074.527.527 0 0 0 .226-.163.458.458 0 0 0 .081-.282c0-.233-.105-.383-.313-.45-.208-.067-.45-.1-.726-.1h-.8v1.089zm.726 3.741h-3.603v-6.231h3.44c.793 0 1.405.151 1.833.456.43.304.645.71.645 1.22 0 .234-.037.428-.113.582a1.132 1.132 0 0 1-.3.387 1.448 1.448 0 0 1-.444.251c-.17.062-.349.119-.532.17.226.016.443.055.65.118.21.062.39.152.545.269.154.117.278.267.37.45.092.184.137.406.137.663 0 .502-.234.904-.7 1.209-.467.305-1.11.456-1.928.456" fill="#fff"/><path d="M48.649 22.6l3.748-3.54c.305.32.67.702 1.014 1.065-1.554 1.56-3.077 3.085-4.587 4.6l-2.81-2.796c.34-.34.684-.688 1.12-1.129l1.515 1.8"/><path d="M8.734 73.998V8.918h45.423v7.598a7.04 7.04 0 0 0-4.856-1.942c-3.896 0-7.066 3.17-7.066 7.064 0 3.896 3.17 7.064 7.066 7.064 1.88 0 3.588-.739 4.856-1.94v47.236zm40.567-46.352a6.015 6.015 0 0 1-6.009-6.008 6.015 6.015 0 0 1 6.009-6.008 6.015 6.015 0 0 1 6.007 6.008 6.015 6.015 0 0 1-6.007 6.008m7.064-6.008a7.03 7.03 0 0 0-1.328-4.115V8.04H7.853v66.84h47.184V25.752a7.03 7.03 0 0 0 1.328-4.115" fill="#fff"/></svg>